<svg width="240" height="240" viewBox="0 0 240 240" fill="none" xmlns="http://www.w3.org/2000/svg">
<g clip-path="url(#clip0_3_94)">
<path d="M240 120C240 186.274 186.274 240 120 240C53.7258 240 0 186.274 0 120C0 53.7258 53.7258 0 120 0C186.274 0 240 53.7258 240 120Z" fill="#1E1E1E"/>
<path d="M236 120C236 184.065 184.065 236 120 236C55.935 236 4 184.065 4 120C4 55.935 55.935 4 120 4C184.065 4 236 55.935 236 120Z" fill="white"/>
<path d="M233 120C233 57.5918 182.408 7 120 7C57.5918 7 7 57.5918 7 120C7 182.408 57.5918 233 120 233V236C55.935 236 4 184.065 4 120C4 55.935 55.935 4 120 4C184.065 4 236 55.935 236 120C236 184.065 184.065 236 120 236V233C182.408 233 233 182.408 233 120Z" fill="white"/>
<path d="M106.943 68.5771C106.943 56.7 116.533 47.0002 128.449 47V55C120.99 55.0002 114.943 61.0789 114.943 68.5771V146.265L101.104 110.681L100.985 110.383C95.8635 97.9756 77.7444 99.8621 75.2617 113.062L75.2051 113.378L71.5586 135.225L50.8975 87.0186C48.517 81.4654 42.1094 78.9034 36.585 81.2959C31.0606 83.6887 28.5116 90.1302 30.8916 95.6836L62.6719 169.83C67.9181 182.069 85.604 180.121 88.2803 167.321L88.3955 166.704L91.7295 146.72L110.643 195.351C116.079 209.329 136.728 205.416 136.728 190.407V76.8984H185.107L185.668 76.8838C191.238 76.6001 195.703 72.1114 195.985 66.5127L196 65.9492C196 59.9021 191.123 55 185.107 55V47C195.581 47 204 55.5233 204 65.9492C204 76.3752 195.581 84.8984 185.107 84.8984H144.728V190.407C144.728 214.162 111.869 220.577 103.187 198.25L94.0537 174.767C86.2157 189.73 62.8115 190.463 55.3183 172.982L23.5391 98.8359C19.4336 89.2574 23.8125 78.11 33.4053 73.9551L33.8574 73.7656C43.2148 69.9928 53.8565 74.2766 58.0527 83.4209L58.251 83.8672L68.4736 107.718C74.6498 91.2638 97.937 89.0332 106.943 104.429V68.5771ZM185.107 47V55H128.449V47H185.107Z" fill="#1E1E1E"/>
<path d="M188 122.5C188 114.323 181.792 108 174.5 108C167.208 108 161 114.323 161 122.5C161 130.677 167.208 137 174.5 137C181.792 137 188 130.677 188 122.5ZM194 122.5C194 133.653 185.433 143 174.5 143C163.567 143 155 133.653 155 122.5C155 111.347 163.567 102 174.5 102C185.433 102 194 111.347 194 122.5Z" fill="#1E1E1E"/>
<path d="M239 120C239 54.2781 185.722 1 120 1C54.2781 1 1 54.2781 1 120C1 185.722 54.2781 239 120 239V240C53.7258 240 0 186.274 0 120C0 53.7258 53.7258 0 120 0C186.274 0 240 53.7258 240 120C240 186.274 186.274 240 120 240V239C185.722 239 239 185.722 239 120Z" fill="white"/>
</g>
<defs>
<clipPath id="clip0_3_94">
<rect width="240" height="240" fill="white"/>
</clipPath>
</defs>
</svg>
